<svg viewBox="0 0 400 400">
  <g id="svgg">
    <path id="path0" class="ql-fill" d="M131.600 125.150 C 131.600 126.096,131.396 126.341,130.454 126.529 C 129.256 126.769,128.800 127.849,128.800 130.450 C 128.800 131.461,128.655 131.600,127.600 131.600 C 126.529 131.600,126.400 131.731,126.400 132.819 C 126.400 133.639,126.056 134.334,125.350 134.942 C 124.698 135.503,124.203 136.437,124.046 137.406 C 123.845 138.639,123.583 139.015,122.796 139.199 C 121.884 139.413,121.790 139.643,121.681 141.917 C 121.578 144.061,121.457 144.400,120.791 144.400 C 119.636 144.400,118.800 146.408,118.800 149.180 L 118.800 151.600 117.600 151.600 L 116.400 151.600 116.400 154.000 C 116.400 156.265,116.346 156.400,115.443 156.400 C 114.201 156.400,114.000 157.014,114.000 160.806 C 114.000 163.935,113.996 163.947,112.900 164.073 L 111.800 164.200 111.688 169.052 L 111.576 173.905 110.442 174.132 C 108.796 174.461,108.800 174.399,108.800 199.617 C 108.800 224.280,108.753 223.600,110.443 223.600 L 111.600 223.600 111.600 228.426 L 111.600 233.252 112.800 234.261 C 113.899 235.186,114.000 235.483,114.000 237.786 C 114.000 241.369,114.334 242.629,115.441 243.222 C 116.285 243.674,116.400 244.015,116.400 246.078 C 116.400 248.360,116.431 248.426,117.600 248.660 C 118.753 248.891,118.800 248.984,118.800 251.024 C 118.800 253.734,119.324 255.091,120.592 255.669 C 121.489 256.078,121.600 256.367,121.600 258.299 C 121.600 260.343,121.670 260.496,122.800 260.922 C 123.622 261.233,124.000 261.647,124.000 262.238 C 124.000 264.322,124.511 265.613,125.429 265.843 C 126.113 266.015,126.387 266.405,126.477 267.338 C 126.552 268.107,126.834 268.621,127.200 268.654 C 127.530 268.683,128.025 268.728,128.300 268.754 C 128.618 268.783,128.800 269.445,128.800 270.567 C 128.800 273.052,129.097 273.600,130.443 273.600 C 131.499 273.600,131.600 273.723,131.600 275.000 L 131.600 276.400 141.400 276.400 L 151.200 276.400 151.200 272.832 L 151.200 269.264 150.019 269.004 C 148.900 268.758,148.832 268.627,148.719 266.472 C 148.607 264.325,148.540 264.193,147.500 264.073 C 146.455 263.953,146.400 263.842,146.400 261.833 C 146.400 259.052,145.733 257.231,144.551 256.781 C 143.695 256.456,143.600 256.179,143.600 254.010 L 143.600 251.600 142.400 251.600 L 141.200 251.600 141.200 247.769 C 141.200 244.046,141.166 243.905,140.000 242.738 C 138.848 241.587,138.800 241.397,138.800 238.012 C 138.800 234.645,138.745 234.426,137.600 233.200 C 136.404 231.920,136.400 231.898,136.353 226.858 C 136.291 220.272,136.109 219.436,134.698 219.273 L 133.600 219.147 133.600 200.261 L 133.600 181.375 134.738 180.946 C 136.182 180.401,136.390 179.267,136.396 171.900 C 136.400 166.872,136.462 166.400,137.120 166.400 C 138.482 166.400,138.800 165.551,138.800 161.920 C 138.800 158.688,138.864 158.400,139.586 158.400 C 140.743 158.400,141.200 157.188,141.200 154.114 C 141.200 151.438,141.228 151.365,142.400 150.922 L 143.600 150.469 143.600 147.035 L 143.600 143.600 144.757 143.600 C 146.122 143.600,146.400 143.058,146.400 140.394 C 146.400 138.833,146.550 138.406,147.167 138.211 C 148.164 137.894,148.800 136.009,148.800 133.367 C 148.800 131.358,148.855 131.247,149.900 131.127 C 150.996 131.000,151.000 130.988,151.116 127.500 L 151.231 124.000 141.416 124.000 L 131.600 124.000 131.600 125.150 M246.667 124.267 C 245.737 125.197,246.422 128.424,247.600 128.660 C 248.758 128.892,248.800 128.977,248.800 131.088 C 248.800 133.526,249.751 135.600,250.868 135.600 C 251.448 135.600,251.583 136.047,251.682 138.300 C 251.796 140.914,251.835 141.004,252.900 141.127 C 253.966 141.249,254.000 141.329,254.013 143.727 C 254.027 146.184,254.856 148.000,255.964 148.000 C 256.237 148.000,256.400 149.039,256.400 150.775 L 256.400 153.549 257.667 153.675 L 258.933 153.800 258.842 156.863 C 258.707 161.373,259.067 162.819,260.455 163.343 L 261.600 163.775 261.600 168.514 L 261.600 173.252 262.800 174.261 L 264.000 175.271 264.000 186.385 C 264.000 198.188,264.534 201.695,266.232 201.043 C 267.128 200.699,266.893 201.522,265.952 202.026 C 265.356 202.345,265.184 202.349,265.375 202.040 C 265.525 201.798,265.388 201.600,265.070 201.600 C 264.125 201.600,264.011 202.911,264.005 213.853 C 264.000 223.947,263.973 224.314,263.205 224.515 C 261.959 224.841,261.600 226.468,261.600 231.799 C 261.600 236.404,261.544 236.764,260.796 237.001 C 259.410 237.441,258.800 239.269,258.800 242.980 C 258.800 246.007,258.717 246.400,258.080 246.400 C 256.738 246.400,256.400 247.255,256.400 250.653 L 256.400 253.947 255.300 254.073 C 254.252 254.194,254.194 254.314,254.078 256.600 C 253.975 258.640,253.797 259.127,252.894 259.849 C 251.960 260.596,251.812 261.043,251.671 263.549 C 251.512 266.361,251.495 266.400,250.398 266.400 C 249.082 266.400,248.800 266.966,248.800 269.606 C 248.800 271.426,248.731 271.555,247.700 271.673 C 246.699 271.789,246.589 271.965,246.481 273.635 C 246.295 276.500,246.165 276.468,257.553 276.326 C 268.697 276.186,268.308 276.292,268.664 273.291 C 268.881 271.454,269.014 271.230,269.953 271.121 C 270.815 271.021,271.022 270.766,271.127 269.678 C 271.206 268.852,271.694 267.935,272.427 267.234 C 273.252 266.446,273.600 265.729,273.600 264.819 C 273.600 263.865,273.808 263.471,274.393 263.318 C 275.330 263.073,276.400 261.109,276.400 259.633 C 276.400 258.941,276.699 258.457,277.287 258.195 C 278.348 257.722,278.707 256.579,278.760 253.500 C 278.800 251.220,278.810 251.200,280.000 251.200 C 281.198 251.200,281.200 251.196,281.200 248.839 C 281.200 246.576,281.249 246.461,282.400 246.060 L 283.600 245.642 283.600 242.228 C 283.600 238.895,283.624 238.809,284.629 238.557 C 286.041 238.203,286.400 236.990,286.400 232.574 C 286.400 229.570,286.517 228.800,286.971 228.800 C 288.525 228.800,288.800 227.742,288.800 221.762 C 288.800 216.055,288.812 215.976,289.744 215.621 C 291.124 215.097,291.200 214.219,291.200 198.800 C 291.200 183.381,291.124 182.503,289.744 181.979 C 288.818 181.627,288.800 181.519,288.795 176.310 C 288.788 170.080,288.644 169.348,287.362 169.026 C 286.443 168.796,286.400 168.636,286.400 165.492 C 286.400 162.209,286.396 162.197,285.000 161.083 C 283.625 159.986,283.600 159.913,283.600 156.983 L 283.600 154.000 282.400 154.000 C 281.201 154.000,281.200 153.997,281.200 151.626 C 281.200 148.819,280.668 147.195,279.661 146.932 C 279.111 146.788,278.843 146.135,278.566 144.271 C 278.251 142.146,278.074 141.782,277.300 141.672 C 276.597 141.572,276.400 141.284,276.400 140.352 C 276.400 138.757,275.422 136.951,274.416 136.688 C 273.816 136.532,273.600 136.147,273.600 135.237 C 273.600 134.108,273.487 134.000,272.300 134.001 L 271.000 134.001 271.136 131.598 L 271.271 129.194 270.036 128.947 C 269.062 128.752,268.800 128.494,268.800 127.730 C 268.800 126.280,267.753 124.534,266.716 124.256 C 265.471 123.923,247.001 123.932,246.667 124.267 " stroke="none" fill="#2c2c34" fill-rule="evenodd"></path>
    <path id="path1" d="" stroke="none" fill="#302c34" fill-rule="evenodd"></path>
    <path id="path2" d="" stroke="none" fill="#302c34" fill-rule="evenodd"></path>
    <path id="path3" d="" stroke="none" fill="#302c34" fill-rule="evenodd"></path>
    <path id="path4" d="" stroke="none" fill="#302c34" fill-rule="evenodd"></path>
  </g>
</svg>