<svg viewBox="0 0 1024 1024"><defs><style type="text/css"></style></defs><path class="ql-fill" d="M156.29312 874.33216l111.58528-133.91872c69.5808 64.33792 161.39264 107.62752 246.79424 107.62752 101.00224 0 154.86976-43.2896 154.86976-111.5904 0-72.1408-59.10528-94.47936-145.67936-131.2512l-129.9712-55.14752c-98.44224-40.72448-196.87936-119.44448-196.87936-261.2224 0-158.82752 139.05408-280.88832 336.04096-280.88832 112.8704 0 225.7408 44.6208 304.512 124.67712l-98.44224 122.112c-61.7728-51.19488-126.01344-80.10752-206.06976-80.10752-85.4016 0-140.54912 38.10304-140.54912 102.39488 0 69.5808 69.5808 94.5408 152.30976 127.35488l127.29344 53.81632c118.21568 48.57856 195.59424 123.39712 195.59424 263.83872 0 158.82752-132.53632 294.0416-356.98688 294.0416-129.96608-0.01024-259.93728-51.21024-354.42176-141.73696z" p-id="19149"></path></svg>