<svg viewBox="0 0 1024 1024"><defs><style type="text/css"></style></defs><path class="ql-fill" d="M936 192H163.92c-16.98 0-33.26 6.74-45.26 18.74L68.72 260.68C58.64 270.76 65.78 288 80.04 288H352v275.58c0 96.24-34.68 187.14-98.2 258.42-8.52 9.56-8.62 23.78 0.42 32.84l33.98 33.98c9.66 9.66 25.88 9.64 35.04-0.5C403.9 799.06 448 684.7 448 563.58V288h192v471.8c0 56.96 33.92 111.02 87.94 129.06 59.24 19.78 120.46-2.84 152.74-51.36l47.26-70.9c7.36-11.04 4.38-25.92-6.66-33.28l-39.94-26.62c-11.04-7.36-25.94-4.38-33.28 6.66l-47.24 70.92a35.288 35.288 0 0 1-29.44 15.72c-19.5 0-35.38-15.88-35.38-35.38V288h200c13.26 0 24-10.74 24-24v-48c0-13.26-10.74-24-24-24z" p-id="6508"></path></svg>