<svg viewBox="0 0 1024 1024"><defs><style type="text/css"></style></defs><path class="ql-fill" d="M382.6176 468.3008l205.0816-309.4016 99.4048 0-256.8704 371.712L697.6 916.3008l-97.9968 0-215.5776-322.688L168.4224 916.3008 69.0176 916.3008l268.1088-385.6896L80.2304 158.8992l98.688 0L382.6176 468.3008z" p-id="3594"></path><path class="ql-fill" d="M955.008 1020.8 683.8016 1020.8l0-40.4992 137.088-163.5072c24.3968-29.5936 40.96-53.1456 49.6128-70.656 8.6784-17.536 13.0816-35.1488 13.0816-52.9408 0-20.1984-5.888-36.7616-17.6896-49.6384-11.8016-12.8768-28.1088-19.3536-48.896-19.3536-25.8048 0-45.44 7.9104-58.9568 23.7056-13.5168 15.7952-20.2496 35.5328-20.2496 59.136l-57.0368 0-0.5632-1.792c-0.9984-35.6096 10.9056-65.7152 35.712-90.4192 24.8064-24.7296 58.496-37.0432 101.0944-37.0432 38.9888 0 69.7088 10.8032 92.1088 32.4096s33.5872 49.5104 33.5872 83.712c0 22.9888-6.3488 45.4912-19.0464 67.5328s-32.0512 49.6128-58.0608 82.7648l-110.1312 128.9984 0.5888 1.536 198.9376 0L954.9824 1020.8 955.008 1020.8z" p-id="3595"></path></svg>