<svg viewBox="0 0 1024 1024"><defs><style type="text/css"></style></defs><path class="ql-fill" d="M382.6176 468.3008l205.0816-309.4016 99.4048 0-256.8704 371.712L697.6 916.3008l-97.9968 0-215.5776-322.688L168.4224 916.3008 69.0176 916.3008l268.1088-385.6896L80.2304 158.8992l98.688 0L382.6176 468.3008z" p-id="2219"></path><path class="ql-fill" d="M955.008 443.1104 683.8016 443.1104l0-40.4992 137.088-163.5072c24.3968-29.5936 40.96-53.1456 49.6128-70.656s13.0816-35.1488 13.0816-52.9408c0-20.1984-5.888-36.7616-17.6896-49.6128-11.8016-12.8768-28.1088-19.3536-48.896-19.3536-25.8048 0-45.44 7.9104-58.9568 23.7056C744.5248 86.016 737.792 105.7024 737.792 129.3056l-57.0368 0L680.192 127.488c-0.9984-35.6096 10.9056-65.7408 35.712-90.4448C740.7104 12.3392 774.4 0 816.9984 0c38.9888 0 69.7088 10.8032 92.1088 32.4096 22.4 21.6064 33.5872 49.5104 33.5872 83.712 0 22.9888-6.3488 45.4912-19.0464 67.5072-12.6976 22.016-32.0512 49.6128-58.0608 82.7904l-110.1312 128.9984 0.5888 1.5104 198.9376 0L954.9824 443.1104 955.008 443.1104z" p-id="2220"></path></svg>